<svg width="92" height="51" viewBox="0 0 92 51" fill="none" xmlns="http://www.w3.org/2000/svg">
<g clip-path="url(#clip0_679_6119)">
<path d="M31.8507 16.4153H28.3135V30.9334V34.5669H31.8507H38.9303V30.9334H31.8507V16.4153Z" fill="white"/>
<path d="M49.9862 16.4153H42.4688V34.5669H46.006V27.3052H46.0171V27.3073H49.5483V34.5669H53.0856V16.4153H49.9862ZM46.006 23.677V20.0446H49.5473V23.6749H46.0161V23.677H46.005H46.006Z" fill="white"/>
<path d="M0 16.4155V20.0437V23.6772V24.0909V27.3054H3.53725H3.90314H7.07957V30.9337H0V34.5671H10.6168V34.565V30.9357V23.6772H3.90314H3.53725V20.0437H10.6168V16.4155H3.53725H0Z" fill="white"/>
<path d="M14.1533 16.4153V20.0435V23.677V27.3052V27.8219V30.9355V34.5648V34.5669H24.7712V30.9334H17.6956V27.8219V27.3052H17.7686H24.7712V23.677H17.7686H17.6956V20.0435H24.7712V16.4153H17.6956H14.1533Z" fill="white"/>
<path d="M56.6594 18.0683L70.6411 25.9029L55.4766 34.5857C55.4766 34.5857 65.6444 34.5774 67.862 34.5691L85.3912 20.8576L92.0015 21.5219L86.3054 16.4746L71.4185 18.6557C70.4709 18.795 69.5121 18.8356 68.5563 18.7784L56.6594 18.0673V18.0683Z" fill="#00A7E5"/>
</g>
<defs>
<clipPath id="clip0_679_6119">
<rect width="92" height="18.1693" fill="white" transform="translate(0 16.4154)"/>
</clipPath>
</defs>
</svg>
